<svg class="icon site-logo" xmlns="http://www.w3.org/2000/svg" viewBox="0 0 187.37 47.42">
  <title>Pleasing</title>
  <path d="m29.48,5.36c-1.38-1.67-3.34-3-5.92-3.94-2.58-.94-5.62-1.41-9.13-1.41-2.33,0-4.66.15-6.98.42-2.39.25-4.88.61-7.45,1.04v.14c.94.28,1.76.88,2.31,1.7.52.82.78,1.77.76,2.74v24.85c.03,1.06-.23,2.1-.76,3.02-.53.88-1.34,1.55-2.31,1.9v.15h13.49v-.15c-.92-.37-1.7-1.04-2.22-1.89-.55-.91-.82-1.97-.8-3.03v-8.35c.3.06.61.13.92.18,1.41.25,2.84.38,4.27.38,1.86,0,3.71-.25,5.5-.74,1.81-.48,3.54-1.22,5.13-2.22,1.52-.94,2.82-2.19,3.8-3.68,1-1.55,1.51-3.35,1.47-5.19.04-2.16-.7-4.25-2.07-5.91Zm-8.51,13.89c-1.71,1.64-4.1,2.45-7.15,2.45-.95,0-1.91-.09-2.85-.24l-.5-.08V5.01c0-1.25.37-2.2,1.11-2.8.74-.61,1.99-.92,3.76-.92,1.6-.05,3.17.42,4.47,1.34,1.27.96,2.24,2.26,2.78,3.76.66,1.79.98,3.7.94,5.61,0,3.21-.86,5.63-2.57,7.27Zm46.81,1.41c.02-1.75-.47-3.46-1.41-4.93-.96-1.47-2.29-2.66-3.87-3.44-1.73-.86-3.64-1.29-5.57-1.25-1.81-.02-3.6.35-5.24,1.11-1.56.73-2.96,1.77-4.13,3.04-1.18,1.29-2.1,2.79-2.71,4.43-.63,1.67-.95,3.43-.94,5.21.02,1.71.38,3.39,1.07,4.95.58,1.4,1.44,2.65,2.55,3.68,2.16,2,4.99,3.11,7.93,3.11,1.82.02,3.63-.37,5.27-1.15,1.61-.76,3.05-1.83,4.22-3.16,1.17-1.32,2.09-2.85,2.71-4.5l-.19-.15c-.98,1.23-2.22,2.23-3.63,2.92-1.46.73-3.08,1.1-4.72,1.09-1.53.03-3.04-.34-4.39-1.06-1.33-.78-2.37-1.97-2.98-3.39-.69-1.47-1.05-3.34-1.08-5.61h17.11v-.89Zm-17.11-.52c.02-1.36.27-2.71.73-3.99.39-1.14,1.1-2.14,2.05-2.88.83-.6,1.83-.92,2.85-.92.89-.03,1.76.25,2.47.78.76.65,1.32,1.51,1.59,2.48.43,1.47.63,3,.61,4.53h-10.3Zm77.83,15.66v.15h-11.51v-.15c.7-.39,1.27-.98,1.62-1.7.4-.79.61-1.66.59-2.55V14.64h.14c.23.2.47.39.73.56,1.67.89,3.67.89,5.34,0,.26-.17.5-.35.73-.56h.14v16.92c-.01.88.19,1.76.59,2.55.36.72.92,1.31,1.62,1.7Zm27.9-1.6c-.36-.83-.53-1.74-.5-2.64v-15.14c.06-1.43-.45-2.83-1.41-3.89-.94-.99-2.28-1.49-4.01-1.49-1.03,0-2.05.17-3.02.5-1.06.34-2.09.78-3.07,1.32-.98.53-1.92,1.11-2.83,1.76-.88.63-1.65,1.23-2.31,1.79l-.05-.05c.03-.42.06-.92.09-1.46.03-.53.05-1.02.05-1.47v-2.53h-.14c-.7.83-1.56,1.51-2.52,2.01-1.02.53-2.09.94-3.21,1.23-1.12.29-2.27.49-3.42.59v.14c.86.21,1.57.79,1.96,1.58.36.76.55,1.59.55,2.43v12.69c.02.88-.2,1.74-.64,2.5-.44.74-1.09,1.35-1.86,1.74v.15h11.32v-.15c-.7-.38-1.26-.99-1.58-1.72-.34-.78-.51-1.62-.5-2.48v-14.39c1.15-.57,2.35-1.05,3.59-1.44,1.06-.36,2.18-.56,3.3-.59,1.04,0,1.79.29,2.26.88.51.72.76,1.59.71,2.47v13.07c.03.88-.13,1.76-.47,2.57-.34.7-.9,1.27-1.6,1.62v.15h10.85v-.15c-.67-.35-1.21-.91-1.54-1.6Zm-33.53-21.75c-.93.01-1.84-.24-2.64-.73-.77-.46-1.41-1.11-1.86-1.89-.44-.76-.67-1.62-.67-2.5-.02-.93.21-1.85.67-2.67.44-.77,1.08-1.4,1.86-1.83.81-.45,1.71-.68,2.64-.67.87,0,1.72.22,2.47.67.75.45,1.38,1.07,1.83,1.83.47.81.71,1.73.7,2.67,0,.88-.24,1.75-.7,2.5-.45.76-1.08,1.41-1.83,1.89-.73.48-1.59.73-2.47.73Zm38.82,11.87l.06.08.05.05-.12-.12Zm17.31-12.24c.32-.29.74-.46,1.17-.48.5,0,.97.21,1.31.58.36.39.76.78,1.18,1.19.48.42,1.1.64,1.74.61.78,0,1.53-.33,2.06-.91.61-.62.94-1.45.91-2.32.02-.91-.33-1.8-.98-2.45-.63-.64-1.5-.99-2.4-.98-.94.02-1.85.31-2.62.83-.9.6-1.69,1.34-2.35,2.2-.5.64-.93,1.33-1.28,2.06-.2-.1-.42-.2-.63-.3-1.86-.77-3.86-1.16-5.87-1.14-1.98-.03-3.94.38-5.75,1.19-1.6.7-3,1.8-4.08,3.18-.99,1.28-1.52,2.85-1.51,4.46,0,1.53.54,3,1.51,4.17.05.06.1.12.15.18l.12.14.12.12c.5.49,1.03.94,1.6,1.35.11.09.23.17.36.26-2.21,1.29-4.02,3.45-3.84,5.65.03.29.09.58.18.86.9,2.63,4.97,3.63,11.44,5.03,5.32,1.09,8.41,2.06,9.05,3.65.07.16.11.33.12.5.03.52-.12,1.04-.42,1.47-.56.78-1.34,1.38-2.24,1.73-.52.22-1.07.37-1.63.47-2.06.36-4.14-.15-6-1.01-1.85-.87-3.57-1.97-5.14-3.28-.9-.7-1.64-1.58-2.19-2.58-.05,0-.11.01-.16.03l-1.52,7.25-.18.83c1.14.26,2.3.43,3.46.51,1.29.12,2.59.2,3.88.26,1.57.08,3.14.06,4.71-.06,1.71-.15,3.4-.52,5.01-1.12,1.32-.48,2.57-1.14,3.71-1.98.97-.71,1.81-1.57,2.51-2.55.6-.85,1.02-1.81,1.25-2.83.13-.59.17-1.2.12-1.81-.02-.23-.05-.45-.09-.68-.6-3.5-3.68-5.43-11.2-6.2-2.79-.26-5.07-.47-6.79-.69-.42-.05-.84-.12-1.18-.17-1.72-.28-2.65-.61-2.7-1.09-.05-.48.45-1.01,1.12-1.43.14.07.28.13.42.2.89.38,1.81.66,2.75.83.42.08.84.13,1.25.18.57.06,1.15.09,1.73.09,2.01.02,4.01-.35,5.87-1.11,1.62-.64,3.06-1.66,4.21-2.98,1.01-1.16,1.57-2.64,1.57-4.17.02-1.66-.53-3.27-1.57-4.56-.8-1.02-1.79-1.87-2.92-2.5.18-.25.41-.47.66-.66h0Zm-4.35,12.83c-.65,1.17-1.91,1.87-3.25,1.81-1.36.07-2.65-.63-3.34-1.81-.73-1.21-1.1-2.97-1.1-5.28s.36-4.2,1.08-5.43c.65-1.2,1.94-1.91,3.3-1.84,1.54,0,2.67.61,3.34,1.84.67,1.24,1.05,3.03,1.05,5.43s-.35,4.07-1.07,5.29Zm-131.58,10.9v.15h-11.51v-.15c.7-.39,1.27-.98,1.62-1.7.4-.79.61-1.66.59-2.55V.24h.14c.23.2.47.39.73.55.81.47,1.74.7,2.67.67.94.03,1.86-.2,2.67-.67.26-.16.5-.35.73-.55h.14v31.3c-.01.88.19,1.76.59,2.55.35.72.92,1.32,1.62,1.71Zm49.38-1.7c-.39-.79-.59-1.66-.57-2.55v-15.21c0-1.57-.82-3.03-2.16-3.85-1.14-.76-2.7-1.22-4.68-1.38-.53-.04-1.1-.06-1.67-.06-1.57,0-3.14.19-4.67.57-1.43.34-2.81.87-4.11,1.55-1.11.57-2.1,1.33-2.92,2.26-.69.73-1.09,1.68-1.13,2.68-.03.76.28,1.49.83,2.01.57.52,1.32.8,2.09.78.8.04,1.6-.18,2.26-.64.58-.43,1.06-.98,1.41-1.6.39-.67.72-1.37.99-2.09.27-.73.61-1.42,1.02-2.09.38-.63.87-1.17,1.46-1.6.68-.45,1.48-.67,2.29-.63.83,0,1.43.23,1.74.68.18.26.3.56.37.87.09.35.13.7.14,1.06v6.68h-.08c-2.91.17-5.78.76-8.53,1.74-2.45.93-4.32,2.07-5.58,3.44-1.27,1.36-1.9,2.8-1.89,4.32-.02,1.03.26,2.03.81,2.9.54.84,1.31,1.52,2.21,1.96,1.02.49,2.13.73,3.26.71,1.26,0,2.52-.22,3.7-.66,1.16-.43,2.26-1,3.28-1.7.94-.63,1.79-1.38,2.55-2.22h.05v.47s0,.06,0,.09c-.09.53-.25,1.04-.49,1.52-.34.71-.89,1.3-1.57,1.7v.15h11.15v-.15c-.68-.39-1.22-.98-1.55-1.69Zm-7.42-8.94v.52c-.03,1.21-.05,2.37-.06,3.49,0,.73,0,1.41-.02,2.03-.7.62-1.5,1.12-2.37,1.48-.9.4-1.88.61-2.86.62-.97.05-1.91-.3-2.62-.97-.65-.65-.97-1.63-.97-2.95-.02-1.2.36-2.38,1.08-3.34.84-1.06,1.93-1.9,3.16-2.45,1.48-.67,3.05-1.12,4.66-1.35.02,0,.04,0,.07,0-.03.94-.05,1.92-.08,2.92Zm30.98,3.37c.02,1.55-.51,3.05-1.51,4.23-1.1,1.28-2.52,2.25-4.1,2.83-.09.03-.18.07-.28.1l-.19.05c-3.47,1.08-7.38.3-10.35-.7-1.65-.55-3.24-1.25-4.76-2.09l.59-1.48.42-1.01,1.74-4.35h.14c.21.91.52,1.79.93,2.63,0,.02.03.07.07.14.83,1.46,1.94,2.73,3.27,3.76,1.51,1.18,3.33,1.91,5.24,2.09.08,0,.16,0,.24.03.06,0,.12,0,.18,0h.32c.79-.02,1.54-.36,2.09-.94.78-.73,1.13-1.81.93-2.86-.11-.57-.38-1.09-.79-1.49-.61-.62-1.34-1.1-2.15-1.43-1.01-.44-2.04-.81-3.09-1.11-1-.34-2.02-.71-3.04-1.11-.99-.38-1.93-.87-2.81-1.46-.84-.57-1.55-1.31-2.09-2.17-.55-.94-.83-2.01-.8-3.09-.02-1.16.29-2.31.89-3.3.63-1.01,1.46-1.87,2.43-2.55,1.06-.74,2.23-1.29,3.46-1.65,1.3-.38,2.65-.57,4.01-.56,1.32,0,2.63.14,3.92.42,1.23.27,2.42.7,3.53,1.29l-1.88,6.3h-.1c-.36-1.17-.9-2.28-1.58-3.3-.63-.96-1.44-1.78-2.38-2.43-.9-.61-1.97-.93-3.06-.92-1.08-.03-2.15.3-3.02.96-.79.6-1.24,1.55-1.2,2.55-.03.84.32,1.66.94,2.22.74.64,1.59,1.14,2.5,1.49,1.05.42,2.21.83,3.47,1.25,1.35.38,2.66.91,3.89,1.58,1.12.6,2.1,1.42,2.88,2.43.77,1.06,1.15,2.36,1.08,3.67Z"></path>
</svg>